HIERARCHY
ROOT HipCenter
{
    OFFSET 0.0 0.0 -0.0
    CHANNELS 6 Xposition Yposition Zposition Zrotation Xrotation Yrotation
    JOINT Spine
    {
        OFFSET 0.0 0.11599269509315491 0.0
        CHANNELS 3 Zrotation Xrotation Yrotation
        JOINT ShoulderCenter
        {
            OFFSET 0.0 0.3325485587120056 0.0
            CHANNELS 3 Zrotation Xrotation Yrotation
            JOINT LeftShoulder
            {
                OFFSET 0.18781208992004395 0.0 0.0
                CHANNELS 3 Zrotation Xrotation Yrotation
                JOINT LeftElbow
                {
                    OFFSET 0.2928585410118103 0.0 0.0
                    CHANNELS 3 Zrotation Xrotation Yrotation
                    JOINT LeftWrist
                    {
                        OFFSET 0.3031957149505615 0.0 0.0
                        CHANNELS 3 Zrotation Xrotation Yrotation
                        JOINT LeftHand
                        {
                            OFFSET 0.03628447651863098 0.0 0.0
                            CHANNELS 3 Zrotation Xrotation Yrotation
                            End Site
                            {
                                OFFSET 0.014513790607452393 0.0 0.0
                            }
                        }
                    }
                }
            }
            JOINT RightShoulder
            {
                OFFSET -0.18781208992004395 0.0 0.0
                CHANNELS 3 Zrotation Xrotation Yrotation
                JOINT RightElbow
                {
                    OFFSET -0.2928585410118103 0.0 0.0
                    CHANNELS 3 Zrotation Xrotation Yrotation
                    JOINT RightWrist
                    {
                        OFFSET -0.3031957149505615 0.0 0.0
                        CHANNELS 3 Zrotation Xrotation Yrotation
                        JOINT RightHand
                        {
                            OFFSET -0.03628447651863098 0.0 0.0
                            CHANNELS 3 Zrotation Xrotation Yrotation
                            End Site
                            {
                                OFFSET -0.014513790607452393 0.0 0.0
                            }
                        }
                    }
                }
            }
            End Site
            {
                OFFSET 0.0 0.13301944732666016 0.0
            }
        }
    }
    JOINT LeftHip
    {
        OFFSET 0.13834136724472046 0.0 0.0
        CHANNELS 3 Zrotation Xrotation Yrotation
        JOINT LeftKnee
        {
            OFFSET 0.0 -0.4246252775192261 0.0
            CHANNELS 3 Zrotation Xrotation Yrotation
            JOINT LeftAnkle
            {
                OFFSET 0.0 -0.431373655796051 0.0
                CHANNELS 3 Zrotation Xrotation Yrotation
                JOINT LeftFoot
                {
                    OFFSET 0.0 -0.13054156303405762 0.0
                    CHANNELS 3 Zrotation Xrotation Yrotation
                    End Site
                    {
                        OFFSET 0.0 0.0 0.05221661925315857
                    }
                }
            }
        }
    }
    JOINT RightHip
    {
        OFFSET -0.13834136724472046 0.0 0.0
        CHANNELS 3 Zrotation Xrotation Yrotation
        JOINT RightKnee
        {
            OFFSET 0.0 -0.4246252775192261 0.0
            CHANNELS 3 Zrotation Xrotation Yrotation
            JOINT RightAnkle
            {
                OFFSET 0.0 -0.431373655796051 0.0
                CHANNELS 3 Zrotation Xrotation Yrotation
                JOINT RightFoot
                {
                    OFFSET 0.0 -0.13054156303405762 0.0
                    CHANNELS 3 Zrotation Xrotation Yrotation
                    End Site
                    {
                        OFFSET 0.0 0.0 0.05221661925315857
                    }
                }
            }
        }
    }
}
MOTION
Frames: 9
Frame Time: 0.03333333333333333
-0.07500000298023224 -0.7910000085830688 -0.8610000014305115 66.5226085153243 21.262130629396324 174.27504110164634 10.572199533552038 6.998980374792501 -1.5842254941501326 -3.606290140281789e-06 -1.516234012888972e-06 -4.325339308991257 103.1390103528011 15.016891878654427 -170.04737282429446 -2.6049427149378653e-06 -1.389527503975373e-06 79.64201032071651 -9.761011272997191e-06 -58.65155979389167 32.4650320928169 7.951386703658791e-16 -2.1379858631180455e-32 -3.0811623476677814e-15 -105.05746772279542 41.64531978860611 140.24053978683588 1.8217614245073574e-06 -2.855142499240705e-06 -79.09795551063898 179.9999501141511 -86.76007198478143 145.63551649100933 8.74652537402467e-15 0.0 0.0 93.724970275389 -53.91776901338324 176.334715443883 145.33314596631655 20.405590186222007 171.9195370604957 38.69972692455479 -21.197825214557295 6.7010423720465395 -7.951386703658792e-16 0.0 0.0 -115.51905099284187 -48.52839186753194 164.73188676623388 -97.22249893355445 22.23553646185443 163.90439523174956 -51.79134447235862 -19.738544979375092 -78.11608222161286 1.590277340731758e-15 0.0 0.0
-0.07000000029802322 -0.7519999742507935 -0.902999997138977 65.26050029615165 14.955837214169517 -177.24597739825896 10.437562374919972 7.351662942602546 -2.364106957635167 -4.340292454013039e-06 2.873757000821823e-07 -0.2533924533918177 109.0523262864955 8.072705573775757 -172.251845653106 5.0506047391321514e-06 -1.507051651913183e-07 80.58642887021989 -4.10990447313049e-06 -42.410195003911234 29.517224417086457 -7.951386703658792e-16 2.9655932940024505e-32 -4.273870353216601e-15 -109.34739235848247 44.58230625356791 135.8528088843788 9.85292427981897e-07 -1.7068299296072084e-06 -74.04772813170602 179.99999709107283 -84.85178352891137 146.33032733662233 -2.2069531490250793e-32 -1.5902773407317584e-15 -1.5902773407317584e-15 109.79029001596612 -55.63610239763827 -168.6972529810806 143.56495465758078 18.884185199679962 175.92243309949603 30.384624699762277 -21.491116021351168 7.045397794903524 -7.951386703658792e-16 0.0 0.0 -126.88925371534069 -55.7995090960693 166.86012057059915 -83.8074065173325 26.24487544885843 153.39644267101758 -47.94799568969407 -16.327000412900365 -90.698337583454 -1.5902773407317584e-15 6.3611093629270335e-15 3.1805546814635168e-15
-0.06800000369548798 -0.7070000171661377 -0.9509999752044678 64.77234298854171 8.898478551219226 -170.03504262966698 9.693365137086582 6.8938331198038 -2.0723947206341355 -1.5921489992904808e-06 8.17266402733031e-08 1.9664453762556124 113.64758094427967 4.28344565337376 -174.11445812065188 -2.9284633295583843e-06 -9.349429779048545e-07 82.57835517709684 -2.2209979317565857e-06 -31.027337631591546 32.727935279746234 3.1805546814635168e-15 3.1805546814635164e-15 -8.348956038841732e-15 -114.64279487183265 45.78419015551754 134.02676972445 1.3734083354594568e-06 -2.121359872063446e-06 -70.3994667911744 179.9999881329932 -84.87582720847223 147.88324916414012 7.951386703658792e-15 0.0 0.0 120.36128802194959 -55.340794020971515 -160.97082264957248 143.13512051595174 20.392612806263784 176.89351705259338 32.25062750804059 -25.64163101403979 10.883852270908152 1.93815050901683e-15 1.0758896601497261e-31 6.361109362927032e-15 -139.22604646144268 -55.65517660885967 158.42161155644052 -74.84784749155718 24.80379569922179 141.94174588135195 -49.36304924464825 -24.143314415114965 -118.46849018077114 0.0 0.0 -7.951386703658792e-16
-0.06800000369548798 -0.656000018119812 -1.0010000467300415 66.54097368842365 2.4777266534722586 -163.16499252160463 9.551282853017534 5.265096917234738 -1.388741284360331 4.3036487464756905e-06 -8.49465145282922e-07 2.7575086126522 116.43472027271548 5.061759559395116 -175.77873775995698 -1.9446409995144652e-07 -1.5448163956614587e-06 84.70847838356197 2.6298788427540687e-06 -25.751601634031843 40.269024777764294 -6.361109362927032e-15 -4.855296927855174e-31 8.74652537402467e-15 -116.7557044981244 46.16017952447398 134.3172674237585 -2.046584791047372e-06 2.0419445914032075e-06 -69.80735788890753 -179.99998152703515 -85.68231096672132 147.78619661504175 -3.578124016646456e-15 -1.055199474377616e-31 3.379339349054986e-15 123.16754205496444 -53.682769991577075 -158.1959901584027 142.26112999471525 21.325668813769564 175.93178648432396 37.305367147677586 -26.91722705818442 12.99206222585473 7.951386703658792e-16 2.2069531490250793e-32 3.1805546814635168e-15 -145.44804598079503 -50.131750281439615 148.58811991153976 -68.68052487634269 24.747702234896394 130.05520460639386 -46.57668860477268 -33.60599227492864 -116.64351249864733 1.5902773407317584e-15 0.0 0.0
-0.06800000369548798 -0.6019999980926514 -1.0549999475479126 68.7494936057427 -3.949292851152679 -157.4031256870568 8.645895133438517 3.0696695194304953 -0.7917622155781996 2.362381851835031e-06 -1.0054097085032025e-07 2.5643968036916456 118.90383104890499 9.100849490599655 -178.59276301799963 -4.620809210687485e-07 1.6269401730092732e-07 84.77782549471247 2.1232432472059757e-06 -18.435709210737283 45.0094378725709 0.0 0.0 0.0 -116.37779960002514 43.911910439121066 136.0399485381864 9.952314906092648e-07 8.578456317654321e-07 -72.38160119363168 -179.99998497657157 -80.44100302782833 147.2736124171345 2.3854160110976368e-15 1.6552148617688095e-32 7.95138670365879e-16 122.01733935832489 -47.33954090867818 -151.39848789196267 140.14130016298603 16.714171051929984 176.82378937241882 31.504846387215053 -24.284349448423836 8.99449431568113 5.963540027744095e-15 -1.6552148617688094e-31 -3.1805546814635176e-15 -149.88098042434007 -43.19114777230344 141.8577332877477 -65.0141243952633 30.16987174520337 116.27022504953887 -37.71987526967653 -36.94669302711238 -97.89701459688351 -4.770832022195275e-15 -6.3611093629270335e-15 7.951386703658789e-16
-0.06499999761581421 -0.546999990940094 -1.1200000047683716 70.78023324257494 -6.425498171984706 -150.09073292823547 7.682013597525591 3.448888229520442 -0.7420117753194517 -5.422084909152944e-07 -1.7630313035142868e-07 0.6374881785663932 122.78483345194081 12.782454724037061 -178.87455631333722 1.3384846197762015e-06 2.6918060996260463e-06 80.44025351488885 2.433977481621325e-06 -16.890553973660577 51.13602278613954 -3.1805546814635164e-15 -6.361109362927033e-15 -1.5902773407317584e-15 -115.24239778622211 40.76687781056256 140.06229042605244 -6.619012632228923e-07 3.5266098920870365e-07 -76.17318299765124 179.99998050029507 -81.69175486107386 146.93811867703414 3.975693351829397e-15 0.0 0.0 118.3491085537962 -42.258967074133885 -146.95828338577405 138.64316050021026 10.374032001352962 178.0663363040169 31.484099919375254 -21.859478896696487 8.150920069427945 -2.3854160110976384e-15 -6.620859447075238e-32 3.1805546814635176e-15 -149.79328064960367 -36.274598123769096 137.6156846725737 -68.08220737465669 34.98563080888021 111.2038914822901 -33.084531516021364 -39.552499192973556 -84.03073291767232 4.770832022195274e-15 6.361109362927033e-15 -2.648343778830095e-31
-0.06199999898672104 -0.5009999871253967 -1.190000057220459 71.25024257265825 -7.424466759792627 -141.78710650038957 6.579920584983073 4.487039826594731 -0.7301007287419675 4.6029892381188073e-07 -1.9509211196751563e-06 -2.274073308421692 126.60261492458886 14.788856502355243 -176.27411553084843 -4.4830347633327096e-06 4.058052484417056e-06 71.31764760853405 -6.106873913328327e-06 -16.4427873825944 54.36121615164094 6.3611093629270335e-15 8.827812596100317e-32 1.5902773407317584e-15 -115.19700045684696 38.15433062896542 145.42318231817245 1.645662268950976e-08 4.371205022308806e-08 -79.00917020908858 179.9999387878013 -88.64697126798801 148.21462255606434 -3.1805546814635164e-15 -1.5902773407317582e-15 -4.4139062980501586e-32 115.38681452765896 -41.229643570248804 -145.5484275599091 136.7021204637762 5.8238791304625925 178.91572767844897 31.639757618085845 -21.949373722683934 8.219719525118567 -4.770832022195275e-15 -3.1805546814635168e-15 -1.3241718894150476e-31 -148.44885094403048 -29.443292289762848 134.77767338343608 -76.25668519458755 38.872582954652046 113.83487582317947 -31.46000239198363 -41.47567501717596 -75.19543486752642 -1.5902773407317584e-15 6.3611093629270335e-15 -1.5902773407317584e-15
-0.06199999898672104 -0.46399998664855957 -1.2580000162124634 69.67686811595556 -7.9092507160327585 -134.6824182027258 5.536909762745426 5.249660339145151 -0.6051158348869378 8.70922384914893e-07 -1.2605636975321228e-06 -4.573059443888354 129.13995617005278 13.3494753662397 -170.84938732309203 -6.822498787332436e-07 3.983358989191786e-06 57.24191886986692 -1.3181511893895774e-06 -21.523110840909187 56.21214631209553 -3.1805546814635168e-15 4.4139062980501586e-32 -1.5902773407317584e-15 -115.99864855711475 36.45188266011674 150.76769447684063 8.000639394587183e-07 -1.3379359418435402e-06 -80.2474526762423 -2.9437302074714112e-05 -87.7010705166619 -31.277076983359894 -3.1805546814635168e-15 0.0 0.0 111.15798158060501 -44.58083606673659 -152.44497088973435 132.88661812746142 5.796110496256478 178.8007209254539 28.365232840392792 -22.1080208135358 6.448035091626079 7.156248033292912e-15 1.9862578341225716e-31 3.1805546814635164e-15 -147.2961532318867 -25.53030641455596 133.40406559111958 -86.23844786846206 42.75323567639842 120.16291612935441 -29.307603704087565 -43.486670526448535 -65.23974095901481 4.770832022195274e-15 -6.361109362927033e-15 2.648343778830095e-31
-0.06599999964237213 -0.4339999854564667 -1.3200000524520874 65.43283890643465 -8.376488226450986 -128.2105579420774 4.194324961527597 6.235032297934334 -0.5633473793315128 -8.0921440060077e-07 -2.0843536617602528e-07 -6.971908437188398 129.39132322813236 10.275012501160676 -165.58777911761337 -1.0871152352451763e-06 6.159683896429601e-07 43.96149440350005 4.390961511690574e-06 -28.26794633156917 54.82345145927943 0.0 0.0 -1.987846675914698e-16 -116.92638058495231 35.87806533888025 155.47374289342366 -1.5310313968050256e-07 -7.142319669573881e-07 -80.53292445546494 -2.2346810893957443e-05 -86.59548292621963 -30.012228970400873 3.1805546814635168e-15 3.1805546814635168e-15 -8.827812596100317e-32 102.12452075249205 -51.56059971179567 -167.34996435941264 127.47317550628384 8.542847185273073 178.11260592003973 23.072159442847198 -21.549462788558667 3.9722271942810528 7.951386703658792e-16 1.1034765745125397e-32 1.5902773407317584e-15 -146.400874091536 -25.283663494916436 134.41402024341124 -95.65847785240545 46.165316161929944 128.36508182261014 -30.338449106785294 -43.63138656992592 -58.78844641650542 0.0 6.3611093629270335e-15 0.0
